<?xml version="1.0" encoding="UTF-8" standalone="no"?>
<svg
   xmlns:dc="http://purl.org/dc/elements/1.1/"
   xmlns:cc="http://creativecommons.org/ns#"
   xmlns:rdf="http://www.w3.org/1999/02/22-rdf-syntax-ns#"
   xmlns:svg="http://www.w3.org/2000/svg"
   xmlns="http://www.w3.org/2000/svg"
   xmlns:sodipodi="http://sodipodi.sourceforge.net/DTD/sodipodi-0.dtd"
   xmlns:inkscape="http://www.inkscape.org/namespaces/inkscape"
   aria-hidden="true"
   focusable="false"
   data-prefix="fas"
   data-icon="user"
   class="svg-inline--fa fa-user fa-w-14"
   role="img"
   viewBox="0 0 627.58472 627.58472"
   version="1.1"
   id="svg4"
   sodipodi:docname="placeholder_admin.svg"
   width="627.58472"
   height="627.58472"
   inkscape:version="1.0.1 (3bc2e813f5, 2020-09-07)"
   inkscape:export-filename="/home/christian/workspaces/j2ee/ldavatar/src/main/resources/static/placeholder_admin.png"
   inkscape:export-xdpi="9.79"
   inkscape:export-ydpi="9.79">
  <metadata
     id="metadata10">
    <rdf:RDF>
      <cc:Work
         rdf:about="">
        <dc:format>image/svg+xml</dc:format>
        <dc:type
           rdf:resource="http://purl.org/dc/dcmitype/StillImage" />
        <dc:title />
      </cc:Work>
    </rdf:RDF>
  </metadata>
  <defs
     id="defs8" />
  <sodipodi:namedview
     pagecolor="#ffffff"
     bordercolor="#666666"
     borderopacity="1"
     objecttolerance="10"
     gridtolerance="10"
     guidetolerance="10"
     inkscape:pageopacity="0"
     inkscape:pageshadow="2"
     inkscape:window-width="1920"
     inkscape:window-height="1012"
     id="namedview6"
     showgrid="false"
     fit-margin-top="0"
     fit-margin-left="0"
     fit-margin-right="0"
     fit-margin-bottom="0"
     inkscape:zoom="1.3964844"
     inkscape:cx="321.49822"
     inkscape:cy="325.67377"
     inkscape:window-x="0"
     inkscape:window-y="0"
     inkscape:window-maximized="1"
     inkscape:current-layer="svg4"
     inkscape:document-rotation="0" />
  <rect
     style="fill:#ff5555;stroke-width:0.944885"
     id="rect844"
     width="627.58472"
     height="627.58472"
     x="0"
     y="0"
     inkscape:export-filename="/home/christian/workspaces/j2ee/ldavatar/src/main/resources/static/placeholder_admin.jpg.png"
     inkscape:export-xdpi="9.79"
     inkscape:export-ydpi="9.79" />
  <path
     fill="currentColor"
     d="m 568.52426,428.22414 c 2.30111,-12.79908 2.30111,-25.87049 0,-38.66957 l 22.83399,-13.52526 c 2.65511,-1.54316 3.80566,-4.72024 2.92062,-7.71576 -5.92975,-19.60711 -16.10769,-37.39875 -29.38327,-52.10407 -2.03558,-2.26935 -5.31022,-2.81398 -7.96534,-1.27083 l -22.83398,13.52527 c -9.64692,-8.44195 -20.70989,-14.97765 -32.65791,-19.33479 v -27.05054 c 0,-3.0863 -2.12409,-5.80951 -5.04472,-6.44493 -19.73634,-4.53868 -39.82671,-4.35713 -58.58952,0 -2.92063,0.63542 -5.04472,3.35863 -5.04472,6.44493 v 27.05054 c -11.94802,4.35714 -23.01099,10.89284 -32.65791,19.33479 l -22.83398,-13.52527 c -2.56662,-1.54315 -5.92976,-0.99852 -7.96534,1.27083 -13.27558,14.70532 -23.45352,32.49696 -29.38327,52.10407 -0.88503,2.99552 0.35402,6.1726 2.92063,7.71576 l 22.83398,13.52526 c -2.3011,12.79908 -2.3011,25.87049 0,38.66957 l -22.83398,13.52527 c -2.65512,1.54315 -3.80566,4.72023 -2.92063,7.71576 5.92975,19.6071 16.10769,37.30796 29.38327,52.10407 2.03558,2.26933 5.31022,2.81398 7.96534,1.27083 l 22.83398,-13.52528 c 9.64692,8.44195 20.70989,14.97765 32.65791,19.33478 v 27.05055 c 0,3.08631 2.12409,5.80951 5.04472,6.44492 19.73635,4.53869 39.82671,4.35714 58.58952,0 2.92063,-0.63541 5.04472,-3.35861 5.04472,-6.44492 v -27.05055 c 11.94802,-4.35713 23.01099,-10.89283 32.65791,-19.33478 l 22.83398,13.52528 c 2.56661,1.54315 5.92976,0.9985 7.96534,-1.27083 13.27558,-14.70534 23.45352,-32.49697 29.38327,-52.10407 0.88504,-2.99553 -0.35401,-6.17261 -2.92062,-7.71576 z M 467.1874,452.91457 c -23.71902,0 -42.92435,-19.78866 -42.92435,-44.02522 0,-24.23656 19.29383,-44.02521 42.92435,-44.02521 23.63052,0 42.92435,19.78865 42.92435,44.02521 0,24.23656 -19.20533,44.02522 -42.92435,44.02522 z M 226.45702,321.74667 c 62.5722,0 113.28488,-52.01329 113.28488,-116.19024 0,-64.17696 -50.71268,-116.190252 -113.28488,-116.190252 -62.5722,0 -113.28488,52.013292 -113.28488,116.190252 0,64.17695 50.71268,116.19024 113.28488,116.19024 z M 404.5267,527.34895 c -2.03559,-1.08928 -4.07118,-2.36012 -6.01826,-3.54017 l -6.9918,4.17558 c -5.31024,3.08631 -11.32849,4.811 -17.34675,4.811 -9.64692,0 -18.93982,-4.17558 -25.5776,-11.43747 -16.19621,-17.97319 -28.58674,-39.84963 -35.57854,-63.17845 -4.86771,-16.06693 1.68158,-33.0416 15.84219,-41.48355 l 6.9918,-4.17559 c -0.0885,-2.36011 -0.0885,-4.72023 0,-7.08034 l -6.9918,-4.17559 c -14.16061,-8.35117 -20.7099,-25.41662 -15.84219,-41.48355 0.79653,-2.63244 1.94708,-5.26487 2.83212,-7.89731 -3.36314,-0.27232 -6.63778,-1.08928 -10.08943,-1.08928 H 290.9763 c -19.64785,9.25891 -41.50829,14.52378 -64.51928,14.52378 -23.01099,0 -44.78293,-5.26487 -64.51928,-14.52378 H 147.1576 c -65.669836,0 -118.949126,54.64573 -118.949126,121.99976 v 37.76183 c 0,24.05502 19.02832,43.57135 42.481834,43.57135 H 382.22373 c 8.93889,0 17.25825,-2.90476 24.07304,-7.71576 -1.06205,-3.4494 -1.77007,-6.98957 -1.77007,-10.71129 z"
     id="path2"
     style="stroke-width:0.896315;fill:#ffffff" />
</svg>
