<?xml version="1.0" encoding="UTF-8" standalone="no"?>
<svg
   xmlns:dc="http://purl.org/dc/elements/1.1/"
   xmlns:cc="http://creativecommons.org/ns#"
   xmlns:rdf="http://www.w3.org/1999/02/22-rdf-syntax-ns#"
   xmlns:svg="http://www.w3.org/2000/svg"
   xmlns="http://www.w3.org/2000/svg"
   xmlns:sodipodi="http://sodipodi.sourceforge.net/DTD/sodipodi-0.dtd"
   xmlns:inkscape="http://www.inkscape.org/namespaces/inkscape"
   aria-hidden="true"
   focusable="false"
   data-prefix="fas"
   data-icon="user"
   class="svg-inline--fa fa-user fa-w-14"
   role="img"
   viewBox="0 0 627.58472 627.58472"
   version="1.1"
   id="svg4"
   sodipodi:docname="placeholder_user.svg"
   width="627.58472"
   height="627.58472"
   inkscape:version="1.0.1 (3bc2e813f5, 2020-09-07)">
  <metadata
     id="metadata10">
    <rdf:RDF>
      <cc:Work
         rdf:about="">
        <dc:format>image/svg+xml</dc:format>
        <dc:type
           rdf:resource="http://purl.org/dc/dcmitype/StillImage" />
        <dc:title />
      </cc:Work>
    </rdf:RDF>
  </metadata>
  <defs
     id="defs8" />
  <sodipodi:namedview
     pagecolor="#ffffff"
     bordercolor="#666666"
     borderopacity="1"
     objecttolerance="10"
     gridtolerance="10"
     guidetolerance="10"
     inkscape:pageopacity="0"
     inkscape:pageshadow="2"
     inkscape:window-width="1920"
     inkscape:window-height="1012"
     id="namedview6"
     showgrid="false"
     fit-margin-top="0"
     fit-margin-left="0"
     fit-margin-right="0"
     fit-margin-bottom="0"
     inkscape:zoom="1.3964844"
     inkscape:cx="321.49822"
     inkscape:cy="325.67377"
     inkscape:window-x="0"
     inkscape:window-y="0"
     inkscape:window-maximized="1"
     inkscape:current-layer="svg4"
     inkscape:document-rotation="0" />
  <rect
     style="fill:#999999;stroke-width:0.944885"
     id="rect844"
     width="627.58472"
     height="627.58472"
     x="0"
     y="0" />
  <path
     fill="currentColor"
     d="m 311.97389,316.71974 c 70.7,0 128,-57.3 128,-128 0,-70.7 -57.3,-127.999998 -128,-127.999998 -70.7,0 -128,57.299998 -128,127.999998 0,70.7 57.3,128 128,128 z m 89.6,32 h -16.7 c -22.2,10.2 -46.9,16 -72.9,16 -26,0 -50.6,-5.8 -72.9,-16 h -16.7 c -74.2,0 -134.399998,60.2 -134.399998,134.4 v 41.6 c 0,26.5 21.499998,48 47.999998,48 h 352 c 26.5,0 48,-21.5 48,-48 v -41.6 c 0,-74.2 -60.2,-134.4 -134.4,-134.4 z"
     id="path2"
     style="fill:#ffffff" />
</svg>
